# xmcd
#
# Track frame offsets:
# 150
# 27059
# 42277
# 61958
# 85346
# 101724
# 117460
# 137318
# 155399
# 175847
# 194608
#
# Disc length: 2800 seconds
#
# Revision: 0
# Processed by: cddbd v1.5.2PL0 Copyright (c) Steve Scherf et al.
# Submitted via: Axialis_AX_CDPlayer 2.6
#
DISCID=8d0aee0b
DTITLE=Levon Helm - Electric Dirt
DYEAR=1900
DGENRE=
TTITLE0=Tennessee Jed
TTITLE1=Move Along Train
TTITLE2=Growing Trade
TTITLE3=Golden Bird
TTITLE4=Stuff You Gotta Watch
TTITLE5=White Dove
TTITLE6=King Fish
TTITLE7=You Can't Lose What You Ain't Never Had
TTITLE8=When I Go Away
TTITLE9=Heaven's Pearls
TTITLE10=I Wish I Knew How It Would Feel To Be Free
EXTD=www.levonhelm.com
EXTT0=
EXTT1=
EXTT2=
EXTT3=
EXTT4=
EXTT5=
EXTT6=
EXTT7=
EXTT8=
EXTT9=
EXTT10=
PLAYORDER=
